<svg id="instagram" xmlns="http://www.w3.org/2000/svg" width="44.956" height="44.956" viewBox="0 0 44.956 44.956">
  <path id="Path_254" class="theme-icon-content-fill" data-name="Path 254" d="M215.594,211.3a4.3,4.3,0,1,1-4.3-4.3A4.3,4.3,0,0,1,215.594,211.3Zm0,0" transform="translate(-188.819 -188.819)" fill="#e6f14a"/>
  <path id="Path_255" class="theme-icon-content-fill" data-name="Path 255" d="M156.1,138.454a4.269,4.269,0,0,0-2.447-2.447,7.131,7.131,0,0,0-2.394-.444c-1.36-.062-1.767-.075-5.209-.075s-3.85.013-5.209.075a7.137,7.137,0,0,0-2.393.444A4.271,4.271,0,0,0,136,138.454a7.135,7.135,0,0,0-.444,2.394c-.062,1.359-.075,1.767-.075,5.209s.013,3.85.075,5.209A7.132,7.132,0,0,0,136,153.66a4.269,4.269,0,0,0,2.447,2.447,7.124,7.124,0,0,0,2.394.444c1.359.062,1.767.075,5.209.075s3.85-.013,5.209-.075a7.124,7.124,0,0,0,2.394-.444,4.269,4.269,0,0,0,2.447-2.447,7.139,7.139,0,0,0,.444-2.394c.062-1.36.075-1.767.075-5.209s-.013-3.85-.075-5.209A7.123,7.123,0,0,0,156.1,138.454Zm-10.05,14.223a6.62,6.62,0,1,1,6.62-6.62A6.62,6.62,0,0,1,146.053,152.677Zm6.881-11.954a1.547,1.547,0,1,1,1.547-1.547A1.547,1.547,0,0,1,152.935,140.722Zm0,0" transform="translate(-123.575 -123.579)"/>
  <path id="Path_256" class="theme-icon-content-fill" data-name="Path 256" d="M22.478,0A22.478,22.478,0,1,0,44.956,22.478,22.48,22.48,0,0,0,22.478,0ZM35.307,27.8a9.47,9.47,0,0,1-.6,3.133,6.6,6.6,0,0,1-3.775,3.775,9.476,9.476,0,0,1-3.133.6c-1.376.063-1.816.078-5.321.078s-3.945-.015-5.322-.078a9.476,9.476,0,0,1-3.133-.6,6.6,6.6,0,0,1-3.775-3.775,9.467,9.467,0,0,1-.6-3.133c-.063-1.377-.078-1.816-.078-5.322s.015-3.945.078-5.321a9.471,9.471,0,0,1,.6-3.133,6.6,6.6,0,0,1,3.775-3.775,9.479,9.479,0,0,1,3.133-.6c1.376-.063,1.816-.078,5.321-.078s3.945.015,5.321.078a9.48,9.48,0,0,1,3.133.6,6.6,6.6,0,0,1,3.775,3.775,9.469,9.469,0,0,1,.6,3.133c.063,1.376.078,1.816.078,5.321S35.37,26.423,35.307,27.8Zm0,0"/>
</svg>
