<svg xmlns="http://www.w3.org/2000/svg" width="100.786" height="100.786" viewBox="0 0 100.786 100.786">
  <path id="Path_1075" data-name="Path 1075" d="M1742.654,43.968a2.382,2.382,0,1,1,2.4-2.382,2.335,2.335,0,0,1-2.4,2.382m1.906,15.3h-3.783V45.532h3.783Zm-5.17,0h-3.812V51.072c0-1.863-.732-2.759-2.418-2.759a2.717,2.717,0,0,0-2.859,3.022v7.929h-3.812V39.3h3.812v8.405a4.743,4.743,0,0,1,4.466-2.5c2.7,0,4.622,1.628,4.622,5.3Zm-20.408.292c-4.019,0-7.069-2.5-7.069-6.983v-.213a6.827,6.827,0,0,1,7.09-7.147c3.179,0,6.116,1.394,6.465,5.333h-3.6a2.533,2.533,0,0,0-2.78-2.34c-1.969,0-3.285,1.472-3.285,4.1v.213c0,2.759,1.237,4.174,3.364,4.174a2.784,2.784,0,0,0,2.943-2.652h3.443c-.214,3.257-2.581,5.518-6.571,5.518m-7.354-.4a6.889,6.889,0,0,1-2.311.37c-2.887,0-4.437-1.472-4.437-4.331V48.235h-1.764v-2.7h1.764V42.567h3.784v2.965h2.886v2.7h-2.886v6.62c0,1.1.554,1.628,1.522,1.628a3.533,3.533,0,0,0,1.443-.263Zm-9.245.107H1698.6V57.109a4.56,4.56,0,0,1-4.359,2.446c-2.681,0-4.678-1.579-4.678-5.177V45.525h3.782v8.327c0,1.863.761,2.759,2.389,2.759a2.735,2.735,0,0,0,2.866-3.022V45.525h3.783Zm-14.108,0h-4.252V51.513h-7.537v7.751h-4.252V39.3h4.252v8.853h7.537V39.3h4.252ZM1711.571,0V23.829h-5.86V0h-47.467V100.786h47.467V76.956h5.86v23.829h47.46V0Z" transform="translate(-1658.245)" fill="#fff"/>
</svg>
