<svg id="twitter_1_" data-name="twitter (1)" xmlns="http://www.w3.org/2000/svg" width="44.956" height="44.956" viewBox="0 0 44.956 44.956">
  <path id="twitter_1_2"  class="theme-icon-content-fill"  data-name="twitter (1)" d="M22.478,0A22.478,22.478,0,1,0,44.956,22.478,22.48,22.48,0,0,0,22.478,0ZM32.741,17.526q.015.332.015.667A14.58,14.58,0,0,1,18.076,32.872h0a14.6,14.6,0,0,1-7.908-2.318,10.494,10.494,0,0,0,1.231.071,10.352,10.352,0,0,0,6.408-2.208,5.165,5.165,0,0,1-4.82-3.584,5.142,5.142,0,0,0,2.33-.088,5.161,5.161,0,0,1-4.139-5.057c0-.023,0-.044,0-.066a5.124,5.124,0,0,0,2.337.645,5.164,5.164,0,0,1-1.6-6.888A14.648,14.648,0,0,0,22.553,18.77a5.162,5.162,0,0,1,8.792-4.705,10.348,10.348,0,0,0,3.276-1.252,5.179,5.179,0,0,1-2.269,2.854,10.29,10.29,0,0,0,2.963-.813A10.485,10.485,0,0,1,32.741,17.526Zm0,0" fill="#e6f14a"/>
</svg>
