<svg id="Component_71_2" data-name="Component 71 – 2" xmlns="http://www.w3.org/2000/svg" width="45.091" height="45.091" viewBox="0 0 45.091 45.091">
  <g id="Group_93" data-name="Group 93">
    <path id="Subtraction_1"  class="theme-icon-content-fill"  data-name="Subtraction 1" d="M22.547,45.091A22.545,22.545,0,0,1,6.6,6.6,22.546,22.546,0,0,1,38.489,38.489,22.4,22.4,0,0,1,22.547,45.091ZM12.355,18.476c.355,0,.643.224,1.027.794.115.173.213.352.286.49a11.991,11.991,0,0,1,.943,2.481c.268.969.533,1.943.789,2.888.434,1.6.883,3.254,1.351,4.89a8.236,8.236,0,0,0,2.047,3.7,2.729,2.729,0,0,0,1.982.854,3.16,3.16,0,0,0,.654-.069,8.863,8.863,0,0,0,3.842-2.057,35.233,35.233,0,0,0,5.889-6.75,25.051,25.051,0,0,0,3.2-5.635,9.418,9.418,0,0,0,.683-3.7c-.011-.094-.021-.189-.031-.288-.027-.26-.055-.528-.1-.8-.317-1.731-1.132-2.725-2.491-3.039a7.657,7.657,0,0,0-1.73-.209,6.262,6.262,0,0,0-3.919,1.362,8.6,8.6,0,0,0-2.8,4.332c-.046.136-.051.223-.016.271a.116.116,0,0,0,.106.043.6.6,0,0,0,.2-.043,4.566,4.566,0,0,1,1.464-.252c.112,0,.225,0,.336.013a1.446,1.446,0,0,1,1.456,1.489,3.683,3.683,0,0,1-.148,1.381,15.1,15.1,0,0,1-3.234,5.33,1.186,1.186,0,0,1-.809.467c-.31,0-.594-.239-.87-.731a9.11,9.11,0,0,1-.822-2.243c-.463-1.813-.762-3.688-1.051-5.5l0-.026c-.081-.5-.164-1.028-.249-1.541a6.673,6.673,0,0,0-1.058-2.884,2.7,2.7,0,0,0-2.225-1.175c-.031,0-.062,0-.092,0a4.112,4.112,0,0,0-2.32.888A34.143,34.143,0,0,0,11,16.234c-.629.575-1.244,1.136-1.868,1.664-.144.124-.149.241-.017.4l.044.054c.281.354.569.718.84,1.086a.285.285,0,0,0,.217.144.37.37,0,0,0,.211-.091c.28-.2.591-.409.979-.652A1.909,1.909,0,0,1,12.355,18.476Z"/>
  </g>
</svg>
