<?xml version="1.0" encoding="utf-8"?>
<!-- Generator: Adobe Illustrator 27.9.0, SVG Export Plug-In . SVG Version: 6.00 Build 0)  -->
<svg version="1.1" id="Layer_1" xmlns="http://www.w3.org/2000/svg" xmlns:xlink="http://www.w3.org/1999/xlink" x="0px" y="0px"
	 viewBox="583.5 413.1 1180.2 1180.2" style="enable-background:new 0 0 2347.2 2006.4;" xml:space="preserve">
<style type="text/css">
	.st0{display:none;fill:#FFFFFF;}
	.st1{fill:#E7F14A;}
	.st2{fill:#140C1C;}
</style>
<rect id="background" x="-2190.9" y="0" class="st0" width="6729.1" height="2006.4"/>
<g id="social_media_logo_and_contact_us_icons_collection_set">
	<g id="x">
		<circle id="circle_00000150103310247657456740000001212004216515958198_" class="st1" cx="1173.6" cy="1003.2" r="590.1"/>
		<path class="st2" d="M1458.8,1280l-226.2-326L1465,684.3h-55.5l-201.7,234l-133.2-192l-29.2-42.1h-51.2h-83.8h-51.2l29.2,42.1
			l216.2,311.7l-244.7,284h55.5l214-248.3l143.1,206.3l29.2,42.1h51.2h83.8h51.2L1458.8,1280z M1323.8,1280l-165.9-239.2l-24.8-35.7
			L939.7,726.3h83.8l156,224.9l24.8,35.7l203.3,293.1L1323.8,1280L1323.8,1280z"/>
	</g>
</g>
</svg>
